<?xml version="1.0" encoding="UTF-8" standalone="no"?>
<svg
   viewBox="0 0 24 24"
   fill="currentColor"
   version="1.1"
   id="svg1"
   sodipodi:docname="hand-doc-fill-grey.svg"
   xml:space="preserve"
   inkscape:version="1.3 (0e150ed6c4, 2023-07-21)"
   xmlns:inkscape="http://www.inkscape.org/namespaces/inkscape"
   xmlns:sodipodi="http://sodipodi.sourceforge.net/DTD/sodipodi-0.dtd"
   xmlns="http://www.w3.org/2000/svg"
   xmlns:svg="http://www.w3.org/2000/svg"><defs
     id="defs1" /><sodipodi:namedview
     id="namedview1"
     pagecolor="#ffffff"
     bordercolor="#000000"
     borderopacity="0.25"
     inkscape:showpageshadow="2"
     inkscape:pageopacity="0.0"
     inkscape:pagecheckerboard="0"
     inkscape:deskcolor="#d1d1d1"
     showguides="true"
     inkscape:zoom="8.3958333"
     inkscape:cx="10.124069"
     inkscape:cy="31.622829"
     inkscape:window-width="1920"
     inkscape:window-height="1017"
     inkscape:window-x="-8"
     inkscape:window-y="-8"
     inkscape:window-maximized="1"
     inkscape:current-layer="svg1" /><path
     d="m 9.3176131,11.452344 2.1699999,5e-4 c 1.332057,0 2.528925,0.57876 3.352862,1.498536 0.713333,0.796307 1.147138,1.848221 1.147138,3.001464 H 8.9865931 l 10e-4,1 8.0000199,-8e-4 v -0.9992 c 0,-1.0824 -0.3182,-2.1031 -0.8861,-3.0008 l 2.8861,8e-4 c 1.9923,0 3.7124,1.1653 4.5161,2.8514 -2.3648,3.1206 -6.1942,5.1486 -10.5161,5.1486 -2.7613,0 -5.1004499,-0.5906 -7.0003399,-1.6248 l 0.00136,-9.3042 c 1.24555,0.1784 2.3853,0.6847 3.32898,1.4285 z m -4.33002,7.5005 c 0,0.5523 -0.44771,1 -1,1 h -2 c -0.55228,0 -1.00000005,-0.4477 -1.00000005,-1 V 9.9528436 c 0,-0.55228 0.44772005,-0.99999 1.00000005,-0.99999 h 2 c 0.55229,0 1,0.44771 1,0.99999 z"
     id="path1"
     sodipodi:nodetypes="ccsccccscccscccsssssssss"
     style="fill:#999999;fill-opacity:1" /><path
     d="m 9.2197096,1.0744902 c -0.047716,0 -0.093677,0.00609 -0.1386719,0.014814 -0.044994,0.00873 -0.089513,0.020454 -0.1308594,0.037035 -0.041346,0.01658 -0.080416,0.037555 -0.1171875,0.061107 -0.036772,0.023552 -0.070292,0.049977 -0.1015625,0.079624 -0.03127,0.029647 -0.061095,0.061427 -0.085937,0.09629 -0.024842,0.034862 -0.045012,0.073755 -0.0625,0.1129551 -0.017488,0.039199 -0.031808,0.079555 -0.041016,0.1222137 -0.00921,0.042658 -0.013672,0.086234 -0.013672,0.1314724 V 9.50724 c 0.04069,0.022024 0.082873,0.042038 0.1230469,0.064811 0.129509,0.07341 0.2569486,0.1505223 0.3808594,0.2314658 0.1239107,0.080947 0.2433682,0.165538 0.3613281,0.2536862 h 2.1718743 c 0.166507,0 0.33037,0.0092 0.492188,0.02592 0.161818,0.0167 0.320362,0.04154 0.476562,0.07407 0.156201,0.03253 0.309331,0.07288 0.458985,0.120362 0.149654,0.04748 0.295321,0.101407 0.4375,0.162951 0.142179,0.06154 0.280287,0.130811 0.414062,0.205542 0.133775,0.07473 0.264229,0.15554 0.388672,0.242575 0.124443,0.08703 0.24324,0.181151 0.357422,0.279611 0.114182,0.09846 0.22318,0.202086 0.326172,0.311089 h 1.261719 2.886718 c 0.124519,0 0.246906,0.0045 0.369141,0.01296 0.122235,0.0084 0.243645,0.02222 0.363281,0.03889 0.119637,0.01667 0.236792,0.03656 0.353516,0.0611 0.116723,0.02455 0.232207,0.05305 0.345703,0.08517 0.113496,0.03214 0.225984,0.06798 0.335937,0.1074 0.04648,0.01667 0.09091,0.03762 0.136719,0.05555 V 1.7300003 c 0,-0.045239 -0.0045,-0.088814 -0.01367,-0.1314724 -0.0092,-0.042659 -0.02353,-0.083014 -0.04102,-0.1222137 -0.01749,-0.039199 -0.03766,-0.078093 -0.0625,-0.1129551 -0.02484,-0.034862 -0.05467,-0.066643 -0.08594,-0.09629 -0.03127,-0.029646 -0.06479,-0.056071 -0.101562,-0.079624 -0.03677,-0.023552 -0.07584,-0.044527 -0.117188,-0.061107 -0.04135,-0.01658 -0.08586,-0.028305 -0.130859,-0.037035 -0.045,-0.00873 -0.09095,-0.014814 -0.138672,-0.014814 z M 11.29252,2.6153338 h 4.237542 V 3.926354 H 11.29252 Z m 0.0014,3.2756988 h 6.910156 V 7.2020532 H 11.29392 Z"
     style="fill:#999999;stroke-width:1.49747;fill-opacity:1"
     id="path14"
     sodipodi:nodetypes="scssssscsccccsccscsssccscsccscscsssssssscccccccccc" /></svg>
