<?xml version="1.0" encoding="UTF-8" standalone="no"?>
<svg
   viewBox="0 0 24 24"
   fill="currentColor"
   version="1.1"
   id="svg1"
   sodipodi:docname="heading-clean-line.svg"
   inkscape:version="1.3 (0e150ed6c4, 2023-07-21)"
   xmlns:inkscape="http://www.inkscape.org/namespaces/inkscape"
   xmlns:sodipodi="http://sodipodi.sourceforge.net/DTD/sodipodi-0.dtd"
   xmlns="http://www.w3.org/2000/svg"
   xmlns:svg="http://www.w3.org/2000/svg">
  <defs
     id="defs1" />
  <sodipodi:namedview
     id="namedview1"
     pagecolor="#ffffff"
     bordercolor="#000000"
     borderopacity="0.25"
     inkscape:showpageshadow="2"
     inkscape:pageopacity="0.0"
     inkscape:pagecheckerboard="0"
     inkscape:deskcolor="#d1d1d1"
     inkscape:zoom="3.0899093"
     inkscape:cx="-71.037683"
     inkscape:cy="-16.343522"
     inkscape:window-width="1920"
     inkscape:window-height="1017"
     inkscape:window-x="-8"
     inkscape:window-y="-8"
     inkscape:window-maximized="1"
     inkscape:current-layer="svg1" />
  <path
     d="M 15.058195,12.61817 V 6.7508898 h 1.676366 V 21 H 15.058195 V 14.294536 H 6.6763659 V 21 H 5 V 6.7508898 H 6.6763659 V 12.61817 Z"
     id="path1"
     style="stroke-width:1" />
  <path
     d="m 18.584479,2.0357844 h 0.471802 l 0.0139,0.2302179 c 0.07971,1.321833 1.137777,2.3798903 2.459571,2.459625 l 0.230229,0.013876 v 0.4718282 l -0.230229,0.013876 C 20.207958,5.3049415 19.149888,6.36304 19.070181,7.6848326 l -0.0139,0.2302298 h -0.471802 l -0.0139,-0.2302298 C 18.490869,6.3630407 17.432787,5.304943 16.111027,5.2252082 L 15.880809,5.2113319 V 4.7395037 l 0.230218,-0.013876 c 1.32176,-0.079733 2.379842,-1.137792 2.45955,-2.459625 z m 0.235915,1.2824492 C 18.505149,4.0633617 17.908323,4.660201 17.163217,4.9754184 17.908323,5.290662 18.505149,5.8874948 18.820394,6.6326112 19.13561,5.8874948 19.732443,5.290662 20.477559,4.9754184 19.732443,4.660201 19.13561,4.0633617 18.820394,3.3182336 Z"
     id="path1-0"
     style="fill:#000000;stroke:#000000;stroke-width:0.3;stroke-dasharray:none" />
</svg>
