<?xml version="1.0" encoding="UTF-8" standalone="no"?>
<svg
   viewBox="0 0 24 24"
   fill="currentColor"
   version="1.1"
   id="svg1"
   sodipodi:docname="checkbox-blank-circle-line.svg"
   inkscape:version="1.3 (0e150ed6c4, 2023-07-21)"
   xmlns:inkscape="http://www.inkscape.org/namespaces/inkscape"
   xmlns:sodipodi="http://sodipodi.sourceforge.net/DTD/sodipodi-0.dtd"
   xmlns="http://www.w3.org/2000/svg"
   xmlns:svg="http://www.w3.org/2000/svg">
  <defs
     id="defs1" />
  <sodipodi:namedview
     id="namedview1"
     pagecolor="#ffffff"
     bordercolor="#000000"
     borderopacity="0.25"
     inkscape:showpageshadow="2"
     inkscape:pageopacity="0.0"
     inkscape:pagecheckerboard="0"
     inkscape:deskcolor="#d1d1d1"
     inkscape:zoom="17.479167"
     inkscape:cx="-3.5756853"
     inkscape:cy="15.876043"
     inkscape:window-width="1920"
     inkscape:window-height="1017"
     inkscape:window-x="1912"
     inkscape:window-y="-8"
     inkscape:window-maximized="1"
     inkscape:current-layer="svg1" />
  <g
     id="g1"
     transform="translate(-0.06734242)">
    <path
       d="m 8.6139585,19.987022 c -4.4111124,0 -7.98702167,-3.57595 -7.98702167,-7.987022 0,-4.4111122 3.57590927,-7.9870216 7.98702167,-7.9870216 4.4110725,0 7.9870215,3.5759094 7.9870215,7.9870216 0,4.411072 -3.575949,7.987022 -7.9870215,7.987022 z m 0,-1.597405 c 3.5289055,0 6.3896175,-2.860711 6.3896175,-6.389617 0,-3.5288898 -2.860712,-6.3896172 -6.3896175,-6.3896172 -3.5288899,0 -6.3896174,2.8607274 -6.3896174,6.3896172 0,3.528906 2.8607275,6.389617 6.3896174,6.389617 z"
       id="path1"
       style="stroke-width:1" />
    <path
       d="m 15.520726,19.987022 c -4.411113,0 -7.9870219,-3.57595 -7.9870219,-7.987022 0,-4.4111122 3.5759089,-7.9870216 7.9870219,-7.9870216 4.411072,0 7.987022,3.5759094 7.987022,7.9870216 0,4.411072 -3.57595,7.987022 -7.987022,7.987022 z m 0,-1.597405 c 3.528906,0 6.389617,-2.860711 6.389617,-6.389617 0,-3.5288898 -2.860711,-6.3896172 -6.389617,-6.3896172 -3.52889,0 -6.3896171,2.8607274 -6.3896171,6.3896172 0,3.528906 2.8607271,6.389617 6.3896171,6.389617 z"
       id="path1-6"
       style="stroke-width:1" />
  </g>
</svg>
