<?xml version="1.0" encoding="UTF-8" standalone="no"?>
<svg
   viewBox="0 0 24 24"
   fill="currentColor"
   version="1.1"
   id="svg1"
   sodipodi:docname="file-word-2-line.svg"
   inkscape:version="1.3 (0e150ed6c4, 2023-07-21)"
   xmlns:inkscape="http://www.inkscape.org/namespaces/inkscape"
   xmlns:sodipodi="http://sodipodi.sourceforge.net/DTD/sodipodi-0.dtd"
   xmlns="http://www.w3.org/2000/svg"
   xmlns:svg="http://www.w3.org/2000/svg">
  <defs
     id="defs1" />
  <sodipodi:namedview
     id="namedview1"
     pagecolor="#ffffff"
     bordercolor="#000000"
     borderopacity="0.25"
     inkscape:showpageshadow="2"
     inkscape:pageopacity="0.0"
     inkscape:pagecheckerboard="0"
     inkscape:deskcolor="#d1d1d1"
     inkscape:zoom="17.104167"
     inkscape:cx="-2.3970767"
     inkscape:cy="15.288672"
     inkscape:window-width="1920"
     inkscape:window-height="1017"
     inkscape:window-x="1912"
     inkscape:window-y="-8"
     inkscape:window-maximized="1"
     inkscape:current-layer="svg1" />
  <path
     d="m 17,19 h 3 V 4.99997 h -3 v -2 h 4 c 0.5523,0 1,0.44772 1,1 V 20 c 0,0.5523 -0.4477,1 -1,1 H 17 Z M 2.85858,2.87732 15.4293,1.0815 C 15.7027,1.04245 15.9559,1.2324 15.995,1.50577 15.9983,1.52919 16,1.55282 16,1.57648 V 22.4235 c 0,0.2761 -0.2239,0.5 -0.5,0.5 -0.0237,0 -0.0473,-0.0017 -0.0707,-0.0051 L 2.85858,21.1226 C 2.36593,21.0522 2,20.6303 2,20.1327 V 3.86727 C 2,3.36962 2.36593,2.9477 2.85858,2.87732 Z M 4,4.73457 V 19.2654 L 14,20.694 V 3.30599 Z"
     id="path1"
     sodipodi:nodetypes="cccccsssscccccsssccsscccccc" />
  <text
     xml:space="preserve"
     style="font-size:11.6993px;font-family:Sans;-inkscape-font-specification:'Sans, Normal';fill:#000000;stroke:#000000;stroke-width:0.877449;stroke-linecap:round;stroke-linejoin:round;stroke-miterlimit:11.4"
     x="4.5905981"
     y="16.013042"
     id="text1"><tspan
       sodipodi:role="line"
       id="tspan1"
       x="4.5905981"
       y="16.013042"
       style="stroke-width:0.877449">N</tspan></text>
  <path
     style="fill:#000000;stroke:#000000;stroke-width:1.16666;stroke-linecap:round;stroke-linejoin:round;stroke-miterlimit:11.4"
     d="m 17.057142,7.1035323 h 2.038539"
     id="path2" />
  <path
     style="fill:#000000;stroke:#000000;stroke-width:1.16666;stroke-linecap:round;stroke-linejoin:round;stroke-miterlimit:11.4"
     d="m 17.057142,9.2500315 h 2.038539"
     id="path2-0" />
  <path
     style="fill:#000000;stroke:#000000;stroke-width:1.16666;stroke-linecap:round;stroke-linejoin:round;stroke-miterlimit:11.4"
     d="m 17.057142,11.396531 h 2.038539"
     id="path2-5" />
  <path
     style="fill:#000000;stroke:#000000;stroke-width:1.16666;stroke-linecap:round;stroke-linejoin:round;stroke-miterlimit:11.4"
     d="m 17.057142,13.54303 h 2.038539"
     id="path2-0-1" />
</svg>
