<?xml version="1.0" encoding="UTF-8" standalone="no"?>
<svg
   viewBox="0 0 52 24"
   fill="currentColor"
   version="1.1"
   id="svg1"
   sodipodi:docname="public_n_private_note.svg"
   width="52"
   height="24"
   inkscape:version="1.3 (0e150ed6c4, 2023-07-21)"
   xmlns:inkscape="http://www.inkscape.org/namespaces/inkscape"
   xmlns:sodipodi="http://sodipodi.sourceforge.net/DTD/sodipodi-0.dtd"
   xmlns="http://www.w3.org/2000/svg"
   xmlns:svg="http://www.w3.org/2000/svg">
  <defs
     id="defs1" />
  <sodipodi:namedview
     id="namedview1"
     pagecolor="#ffffff"
     bordercolor="#000000"
     borderopacity="0.25"
     inkscape:showpageshadow="2"
     inkscape:pageopacity="0.0"
     inkscape:pagecheckerboard="0"
     inkscape:deskcolor="#d1d1d1"
     inkscape:zoom="6.6770833"
     inkscape:cx="7.4882995"
     inkscape:cy="1.7223089"
     inkscape:window-width="1600"
     inkscape:window-height="837"
     inkscape:window-x="-8"
     inkscape:window-y="-8"
     inkscape:window-maximized="1"
     inkscape:current-layer="svg1" />
  <path
     d="m 21,8.238948 v 12.9932 c 0,0.5569 -0.4448,1.0068 -0.9934,1.0068 H 3.9934 C 3.44495,22.238948 3,21.794948 3,21.247148 V 3.2307479 c 0,-0.53649 0.4487,-0.9918 1.00221,-0.9918 H 14.9968 Z m -2,1 H 14 V 4.2389479 H 5 V 20.238948 H 19 Z M 8,7.2389479 h 3 V 9.238948 H 8 Z m 0,4.0000001 h 8 v 2 H 8 Z m 0,4 h 8 v 2 H 8 Z"
     id="path1" />
  <path
     d="m 29.871628,12.142563 c 0.02896,-1.5342 0.11046,-2.5205201 0.33967,-3.6664201 0.33163,-1.658 0.95392,-2.65887 2.19933,-3.48906 l -1.10932,-1.66415 c -1.75488,1.1698 -2.63273,2.66894 -3.05117,4.76094 -0.519912,2.5993201 -0.397758,7.9352901 -0.394616,8.0685901 0,8e-4 -1e-6,0.0017 -1e-6,0.0025 0,2.7614 2.238577,5 4.999997,5 2.76143,0 4.99998,-2.2386 4.99998,-5 0,-0.2739 -0.0221,-0.5431 -0.0647,-0.8059 0.3304,-0.1254 0.689,-0.1941 1.0647,-0.1941 0.3758,0 0.7344,0.0687 1.0648,0.1941 -0.0427,0.2628 -0.0648,0.532 -0.0648,0.8059 0,2.7614 2.2386,5 5,5 2.7614,0 5,-2.2386 5,-5 0,0 0,0 0,0 h 2e-4 c 0,0 0.132,-5.43874 -0.3944,-8.0710501 -0.4183,-2.09196 -1.296,-3.5911 -3.0506,-4.76093 l -1.1095,1.66405 c 1.2452,0.83017 1.8674,1.83102 2.1989,3.48907 0.2292,1.14598 0.3107,2.1323501 0.3396,3.6666601 -0.8329,-0.6205 -1.8656,-0.9878 -2.9842,-0.9878 -1.7784,0 -3.3383,0.9281 -4.2245,2.3247 -0.5522,-0.2098 -1.151,-0.3247 -1.7755,-0.3247 -0.6245,0 -1.2232,0.1149 -1.7754,0.3247 -0.88624,-1.3966 -2.44617,-2.3247 -4.22458,-2.3247 -1.11838,0 -2.15101,0.3672 -2.98389,0.9876 z m -0.01611,4.0124 c 0,-1.6569 1.34315,-3 3,-3 1.30705,0 2.42131,0.8364 2.8318,2.0063 0.10867,0.3097 0.1682,0.6437 0.1682,0.9937 0,1.6569 -1.34314,3 -3,3 -1.65685,0 -3,-1.3431 -3,-3 z m 12.16818,-0.9937 c 0.4105,-1.1699 1.5248,-2.0063 2.8318,-2.0063 1.6569,0 3,1.3431 3,3 0,1.6569 -1.3431,3 -3,3 -1.6568,0 -3,-1.3431 -3,-3 0,-0.35 0.0596,-0.684 0.1682,-0.9937 z"
     id="path1-1" />
</svg>
