<?xml version="1.0" encoding="UTF-8" standalone="no"?>
<svg
   viewBox="0 0 24 24"
   fill="currentColor"
   version="1.1"
   id="svg1"
   sodipodi:docname="request.svg"
   inkscape:version="1.3 (0e150ed6c4, 2023-07-21)"
   xmlns:inkscape="http://www.inkscape.org/namespaces/inkscape"
   xmlns:sodipodi="http://sodipodi.sourceforge.net/DTD/sodipodi-0.dtd"
   xmlns="http://www.w3.org/2000/svg"
   xmlns:svg="http://www.w3.org/2000/svg">
  <defs
     id="defs1" />
  <sodipodi:namedview
     id="namedview1"
     pagecolor="#ffffff"
     bordercolor="#000000"
     borderopacity="0.25"
     inkscape:showpageshadow="2"
     inkscape:pageopacity="0.0"
     inkscape:pagecheckerboard="0"
     inkscape:deskcolor="#d1d1d1"
     inkscape:zoom="22.627417"
     inkscape:cx="12.772116"
     inkscape:cy="15.445864"
     inkscape:window-width="1920"
     inkscape:window-height="1017"
     inkscape:window-x="1912"
     inkscape:window-y="-8"
     inkscape:window-maximized="1"
     inkscape:current-layer="svg1" />
  <g
     id="g28"
     transform="rotate(90,12.25806,11.793289)">
    <path
       d="M 9.9958075,1.589768 V 1.586588 H 20.993602 c 0.5535,0 1.0022,0.45531 1.0022,0.9918 v 12.10461 c 0,0.5478 -0.4449,0.9918 -0.9934,0.9918 H 4.989208 c -0.54864,0 -0.9934,-0.4499 -0.9934,-1.0068 V 7.586588 Z M 6.824988,7.586588 h 3.1708195 v -3.16914 z m 5.170814,-4 v 5 c 0,0.55228 -0.4477,1 -1,1 H 5.995808 v 6.08821 H 19.995802 V 3.586588 Z"
       id="path1"
       sodipodi:nodetypes="ccsssssscccccccssccccc" />
    <path
       d="m 5,10 c 0.55229,0 1,0.44771 1,0.99999 1.63477,0 3.13864,0.5604 4.33002,1.4995 l 2.17,5e-4 c 1.3326,0 2.5299,0.5793 3.3539,1.4997 l 3.1461,3e-4 c 1.9923,0 3.7124,1.1653 4.5161,2.8514 -2.3648,3.1206 -6.1942,5.1486 -10.5161,5.1486 -2.7907,0 -5.15024,-0.6032 -7.0609,-1.6579 C 5.80069,20.72559 5.43239,20.99999 5,20.99999 H 2 c -0.55228,0 -1,-0.4477 -1,-1 v -9 C 1,10.44771 1.44772,10 2,10 Z M 6.00101,12.99999 6,18.02199 l 0.04536,0.0325 c 1.79382,1.2604 4.13276,1.9455 6.95466,1.9455 3.004,0 5.7986,-1.1556 7.8351,-3.1294 l 0.1329,-0.1336 -0.1192,-0.1004 c -0.464,-0.363 -1.0332,-0.5882 -1.6438,-0.6297 l -0.205,-0.0069 h -2.1115 c 0.073,0.3216 0.1115,0.6563 0.1115,1 v 1 H 8 v -2 l 6.79002,-0.001 -0.0344,-0.0785 c -0.3805,-0.7936 -1.1675,-1.3552 -2.0912,-1.4152 l -0.1644,-0.0053 -2.92943,-10e-5 C 8.66335,13.57449 7.39924,13.00029 6.00101,12.99999 Z M 4,11.99999 H 3 v 7 h 1 z"
       id="path1-7"
       sodipodi:nodetypes="sccccccscsssssscccsccccccscccccccccccccc" />
  </g>
</svg>
