<?xml version="1.0" encoding="UTF-8" standalone="no"?>
<svg
   viewBox="0 0 24 24"
   fill="currentColor"
   version="1.1"
   id="svg1"
   sodipodi:docname="node-tree.svg"
   inkscape:version="1.3 (0e150ed6c4, 2023-07-21)"
   xmlns:inkscape="http://www.inkscape.org/namespaces/inkscape"
   xmlns:sodipodi="http://sodipodi.sourceforge.net/DTD/sodipodi-0.dtd"
   xmlns="http://www.w3.org/2000/svg"
   xmlns:svg="http://www.w3.org/2000/svg">
  <defs
     id="defs1" />
  <sodipodi:namedview
     id="namedview1"
     pagecolor="#ffffff"
     bordercolor="#000000"
     borderopacity="0.25"
     inkscape:showpageshadow="2"
     inkscape:pageopacity="0.0"
     inkscape:pagecheckerboard="0"
     inkscape:deskcolor="#d1d1d1"
     inkscape:zoom="34.208333"
     inkscape:cx="12"
     inkscape:cy="12"
     inkscape:window-width="1920"
     inkscape:window-height="1017"
     inkscape:window-x="-8"
     inkscape:window-y="-8"
     inkscape:window-maximized="1"
     inkscape:current-layer="svg1" />
  <path
     d="m 22,10 c 0,0.5523 -0.44772,1 -1,1 h -4 c -0.55228,0 -1,-0.4477 -1,-1 V 8 h -2 v 5 h 1 c 0.55228,0 1,0.4477 1,1 v 6 c 0,0.5523 -0.44772,1 -1,1 h -4 c -0.5523,0 -1,-0.4477 -1,-1 v -6 c 0,-0.5523 0.4477,-1 1,-1 h 1 V 8 H 6 v 5 h 1 c 0.5523,0 1,0.4477 1,1 v 6 c 0,0.5523 -0.4477,1 -1,1 H 3 C 2.4477,21 2,20.5523 2,20 V 14 C 2,13.4477 2.4477,13 3,13 H 4 V 7 C 4,6.44772 4.4477,6 5,6 H 16 V 4 c 0,-0.55228 0.44772,-1 1,-1 h 4 c 0.55228,0 1,0.44772 1,1 z M 6,19 V 15 H 4 v 4 z m 8,0 v -4 h -2 v 4 z M 20,9 V 5 h -2 v 4 z"
     id="path1" />
</svg>
